<svg width="31" height="44" viewBox="0 0 31 44" fill="none" xmlns="http://www.w3.org/2000/svg">
<path d="M30.5449 8.55108V4.52122C30.5449 2.93614 29.2977 1.61972 27.7585 1.53912C26.9358 1.43166 21.5752 0.733149 15.2857 0.733149C8.9963 0.706284 3.63567 1.43166 2.78646 1.53912C1.22074 1.64658 0 2.93614 0 4.52122V12.6078C0 13.7899 0.955359 14.7571 2.12302 14.7571L11.1724 14.7839C12.3401 14.7839 13.2954 15.7511 13.2954 16.9332V34.369C13.2954 36.0616 11.4378 37.0825 10.0313 36.169L4.35219 32.5153C4.11335 32.3541 3.98066 32.1123 3.98066 31.8437V18.3302C3.98066 17.578 3.39683 16.9869 2.65377 16.9869H0V32.8646C0 33.8855 0.504217 34.8258 1.37996 35.3899L13.6935 43.3153C14.1712 43.6377 14.7285 43.772 15.2857 43.772C15.843 43.772 16.4003 43.6108 16.878 43.3153L29.1915 35.3899C30.0407 34.8258 30.5715 33.8855 30.5715 32.8646V12.9571C30.5715 11.775 29.6161 10.8078 28.4485 10.8078L4.77679 10.7272C4.32565 10.7272 3.98066 10.3779 3.98066 9.92123V6.64361C3.98066 5.9451 4.48488 5.38092 5.17486 5.30032C7.35096 5.05853 11.1459 4.73614 15.2857 4.73614C19.4256 4.73614 23.2205 5.05853 25.3966 5.30032C26.0601 5.38092 26.5908 5.9451 26.5908 6.64361V7.18092C26.5908 7.93316 27.1747 8.52421 27.9177 8.52421H30.5449V8.55108ZM26.1928 32.5153L20.5137 36.169C19.1072 37.0825 17.2495 36.0616 17.2495 34.369V16.96C17.2495 15.778 18.2049 14.8108 19.3726 14.8108L25.7416 14.8377C26.1928 14.8377 26.5377 15.1869 26.5377 15.6436V31.8437C26.5643 32.1123 26.4316 32.381 26.1928 32.5153Z" fill="#474747"/>
</svg>
